<svg width="24" height="18" viewBox="0 0 24 18" fill="none" xmlns="http://www.w3.org/2000/svg">
<path d="M16.4943 5.89972L16.3945 6.64304L17.8811 6.84278L17.981 6.09946L17.2376 5.99959L16.4943 5.89972ZM16.3577 4.50777L16.0761 5.20289L16.0761 5.2029L16.3577 4.50777ZM16.3272 4.49544L16.6089 3.80032L16.6088 3.80032L16.3272 4.49544ZM15.5447 3.72894L14.8536 4.02051L14.8537 4.02071L15.5447 3.72894ZM15.532 3.69894L16.223 3.40737L16.2229 3.40718L15.532 3.69894ZM14.0091 2.83718L14.1043 3.58111L14.105 3.58103L14.0091 2.83718ZM13.974 2.84168L13.8788 2.09775L13.8781 2.09783L13.974 2.84168ZM12.9034 2.56053L13.3542 1.96111L13.3528 1.96003L12.9034 2.56053ZM12.8793 2.54247L12.4285 3.1419L12.43 3.14298L12.8793 2.54247ZM12 2.25V1.5V2.25ZM11.1208 2.54247L10.67 1.94305L10.67 1.94309L11.1208 2.54247ZM11.0934 2.56305L11.5442 3.16249L11.5442 3.16243L11.0934 2.56305ZM10.0264 2.84323L9.93055 3.58707L9.93056 3.58707L10.0264 2.84323ZM9.9902 2.83855L10.0861 2.09471L10.0861 2.09471L9.9902 2.83855ZM8.46755 3.70078L9.15865 3.99213L9.15866 3.9921L8.46755 3.70078ZM8.45539 3.72963L7.7643 3.43828L7.76428 3.43832L8.45539 3.72963ZM7.67214 4.49677L7.39099 3.80146L7.39096 3.80147L7.67214 4.49677ZM7.64269 4.50868L7.92384 5.20399L7.92387 5.20398L7.64269 4.50868ZM6.01901 6.09985L6.11887 6.84318L7.60551 6.64347L7.50566 5.90014L6.76233 6L6.01901 6.09985ZM17.5166 6.84537L16.7727 6.75V6.75L17.5166 6.84537ZM16.5428 14.4407L17.2868 14.5361V14.5361L16.5428 14.4407ZM7.45714 14.4407L8.20105 14.3454V14.3454L7.45714 14.4407ZM6.48338 6.84537L7.22729 6.75L6.48338 6.84537ZM17.2376 5.99959L17.981 6.09946C18.045 5.62301 17.9464 5.14011 17.7023 4.72628L17.0563 5.10733L16.4103 5.48838C16.4844 5.61405 16.5133 5.75843 16.4943 5.89972L17.2376 5.99959ZM17.0563 5.10733L17.7023 4.72628C17.4583 4.31275 17.0838 3.99269 16.6392 3.81263L16.3577 4.50777L16.0761 5.2029C16.2194 5.26096 16.336 5.36243 16.4103 5.48838L17.0563 5.10733ZM16.3577 4.50777L16.6393 3.81264L16.6089 3.80032L16.3272 4.49544L16.0456 5.19057L16.0761 5.20289L16.3577 4.50777ZM16.3272 4.49544L16.6088 3.80032C16.5234 3.76568 16.4467 3.71527 16.3828 3.65272L15.858 4.18853L15.3332 4.72434C15.5379 4.92484 15.7802 5.08302 16.0456 5.19057L16.3272 4.49544ZM15.858 4.18853L16.3828 3.65272C16.319 3.59019 16.2692 3.51681 16.2356 3.43716L15.5447 3.72894L14.8537 4.02071C14.9653 4.28484 15.1285 4.5238 15.3332 4.72434L15.858 4.18853ZM15.5447 3.72894L16.2357 3.43737L16.223 3.40737L15.532 3.69894L14.841 3.99051L14.8536 4.02051L15.5447 3.72894ZM15.532 3.69894L16.2229 3.40718C16.0361 2.96476 15.7068 2.59831 15.2893 2.36207L14.9199 3.0148L14.5506 3.66754C14.6838 3.74294 14.7848 3.85746 14.8411 3.99069L15.532 3.69894ZM14.9199 3.0148L15.2893 2.36207C14.8721 2.12596 14.3886 2.03208 13.9133 2.09333L14.0091 2.83718L14.105 3.58103C14.2603 3.56102 14.4171 3.59201 14.5506 3.66754L14.9199 3.0148ZM14.0091 2.83718L13.9139 2.09325L13.8788 2.09775L13.974 2.84168L14.0692 3.58561L14.1043 3.58111L14.0091 2.83718ZM13.974 2.84168L13.8781 2.09783C13.7852 2.10981 13.6909 2.10371 13.6006 2.08002L13.4101 2.80542L13.2196 3.53082C13.4968 3.60361 13.7856 3.62216 14.0698 3.58553L13.974 2.84168ZM13.4101 2.80542L13.6006 2.08002C13.5105 2.05633 13.4268 2.01569 13.3542 1.96111L12.9034 2.56053L12.4527 3.15996C12.6818 3.33224 12.9424 3.45802 13.2196 3.53082L13.4101 2.80542ZM12.9034 2.56053L13.3528 1.96003L13.3286 1.94197L12.8793 2.54247L12.43 3.14298L12.4541 3.16104L12.9034 2.56053ZM12.8793 2.54247L13.3301 1.94305C12.9468 1.65485 12.4793 1.5 12 1.5V2.25V3C12.1567 3 12.3073 3.05077 12.4285 3.1419L12.8793 2.54247ZM12 2.25V1.5C11.5208 1.5 11.0532 1.65485 10.67 1.94305L11.1208 2.54247L11.5715 3.1419C11.6927 3.05077 11.8433 3 12 3V2.25ZM11.1208 2.54247L10.67 1.94309L10.6426 1.96366L11.0934 2.56305L11.5442 3.16243L11.5716 3.14186L11.1208 2.54247ZM11.0934 2.56305L10.6427 1.96361C10.5706 2.01781 10.4875 2.05817 10.3979 2.08169L10.5884 2.8071L10.7789 3.53251C11.0554 3.45988 11.3156 3.33438 11.5442 3.16249L11.0934 2.56305ZM10.5884 2.8071L10.3979 2.08169C10.3083 2.10522 10.2146 2.11127 10.1223 2.09938L10.0264 2.84323L9.93056 3.58707C10.2141 3.62363 10.5023 3.60513 10.7789 3.53251L10.5884 2.8071ZM10.0264 2.84323L10.1223 2.09938L10.0861 2.09471L9.9902 2.83855L9.89431 3.5824L9.93055 3.58707L10.0264 2.84323ZM9.9902 2.83855L10.0861 2.09471C9.61066 2.03343 9.12703 2.12741 8.70976 2.36369L9.07933 3.01632L9.44889 3.66895C9.58231 3.5934 9.73909 3.56239 9.89433 3.5824L9.9902 2.83855ZM9.07933 3.01632L8.70976 2.36369C8.29226 2.60011 7.96303 2.96681 7.77644 3.40946L8.46755 3.70078L9.15866 3.9921C9.21482 3.85889 9.31572 3.74436 9.44889 3.66895L9.07933 3.01632ZM8.46755 3.70078L7.77646 3.40944L7.7643 3.43828L8.45539 3.72963L9.14649 4.02098L9.15865 3.99213L8.46755 3.70078ZM8.45539 3.72963L7.76428 3.43832C7.7307 3.51798 7.68096 3.59139 7.61711 3.65392L8.1419 4.18973L8.66669 4.72554C8.87168 4.52477 9.03501 4.28546 9.14651 4.02094L8.45539 3.72963ZM8.1419 4.18973L7.61711 3.65392C7.55324 3.71648 7.47653 3.76687 7.39099 3.80146L7.67214 4.49677L7.95328 5.19208C8.21916 5.08458 8.46174 4.92628 8.66669 4.72554L8.1419 4.18973ZM7.67214 4.49677L7.39096 3.80147L7.36151 3.81338L7.64269 4.50868L7.92387 5.20398L7.95332 5.19207L7.67214 4.49677ZM7.64269 4.50868L7.36153 3.81337C6.91687 3.99318 6.54208 4.3131 6.29799 4.7266L6.94385 5.10786L7.58971 5.48913C7.664 5.36328 7.78055 5.26193 7.92384 5.20399L7.64269 4.50868ZM6.94385 5.10786L6.29799 4.7266C6.05371 5.14039 5.955 5.62335 6.01901 6.09985L6.76233 6L7.50566 5.90014C7.48669 5.75896 7.51559 5.61468 7.58971 5.48913L6.94385 5.10786ZM17.5166 6.84537L16.7727 6.75L15.7989 14.3454L16.5428 14.4407L17.2868 14.5361L18.2605 6.94075L17.5166 6.84537ZM7.45714 14.4407L8.20105 14.3454L7.22729 6.75L6.48338 6.84537L5.73947 6.94074L6.71323 14.5361L7.45714 14.4407ZM7.22729 6V6.75H10.125V6V5.25H7.22729V6ZM10.5 15.75V15H8.94496V15.75V16.5H10.5V15.75ZM10.125 6L9.37555 6.02882L9.75055 15.7788L10.5 15.75L11.2494 15.7212L10.8744 5.97117L10.125 6ZM10.125 6V6.75H13.875V6V5.25H10.125V6ZM13.875 6V6.75H16.7727V6V5.25H13.875V6ZM15.055 15.75V15H13.5V15.75V16.5H15.055V15.75ZM13.5 15.75V15H10.5V15.75V16.5H13.5V15.75ZM13.875 6L13.1255 5.97117L12.7506 15.7212L13.5 15.75L14.2494 15.7788L14.6244 6.02882L13.875 6ZM7.45714 14.4407L6.71323 14.5361C6.85718 15.659 7.81294 16.5 8.94496 16.5V15.75V15C8.56762 15 8.24904 14.7197 8.20105 14.3454L7.45714 14.4407ZM16.5428 14.4407L15.7989 14.3454C15.751 14.7197 15.4324 15 15.055 15V15.75V16.5C16.187 16.5 17.1428 15.659 17.2868 14.5361L16.5428 14.4407ZM17.5166 6.84537L18.2605 6.94075C18.3755 6.04394 17.6768 5.25 16.7727 5.25V6V6.75V6.75L17.5166 6.84537ZM6.48338 6.84537L7.22729 6.75V6.75V6V5.25C6.32314 5.25 5.62449 6.04394 5.73947 6.94074L6.48338 6.84537Z" fill="#260096"/>
</svg>
